<mxfile host="drawio-plugin" modified="2023-01-29T19:55:32.734Z" agent="5.0 (Windows NT 6.2; Win64; x64) AppleWebKit/537.36 (KHTML, like Gecko) Chrome/97.0.4692.45 Safari/537.36" etag="jERy8mbYbGy4EGBtSiP_" version="20.5.3" type="embed"><diagram id="23iRSUPoRavnBvh4doch" name="Page-1"><mxGraphModel dx="2218" dy="1006" grid="1" gridSize="10" guides="1" tooltips="1" connect="1" arrows="1" fold="1" page="1" pageScale="1" pageWidth="827" pageHeight="1169" math="0" shadow="0"><root><mxCell id="0"/><mxCell id="1" parent="0"/><mxCell id="4" value="" style="strokeWidth=1;shadow=0;dashed=0;align=center;html=1;shape=mxgraph.mockup.containers.browserWindow;rSize=0;strokeColor=#666666;strokeColor2=#008cff;strokeColor3=#c4c4c4;mainText=,;recursiveResize=0;" vertex="1" parent="1"><mxGeometry x="-827" width="1150" height="720" as="geometry"/></mxCell><mxCell id="5" value="Application" style="strokeWidth=1;shadow=0;dashed=0;align=center;html=1;shape=mxgraph.mockup.containers.anchor;fontSize=17;fontColor=#666666;align=left;" vertex="1" parent="4"><mxGeometry x="60" y="12" width="110" height="26" as="geometry"/></mxCell><mxCell id="6" value="https://www.someshop.ru/apps" style="strokeWidth=1;shadow=0;dashed=0;align=center;html=1;shape=mxgraph.mockup.containers.anchor;rSize=0;fontSize=17;fontColor=#666666;align=left;" vertex="1" parent="4"><mxGeometry x="130" y="60" width="250" height="26" as="geometry"/></mxCell><mxCell id="7" value="" style="strokeWidth=1;shadow=0;dashed=0;align=left;html=1;shape=mxgraph.mockup.containers.marginRect2;rectMarginLeft=67;strokeColor=#666666;gradientColor=none;" vertex="1" parent="4"><mxGeometry x="850" y="110" width="300" height="610" as="geometry"/></mxCell><mxCell id="8" value="Продукты" style="strokeColor=inherit;fillColor=inherit;gradientColor=inherit;strokeWidth=1;shadow=0;dashed=0;align=center;html=1;shape=mxgraph.mockup.containers.rrect;rSize=0;fontSize=17;fontColor=#666666;" vertex="1" parent="7"><mxGeometry width="110" height="25" relative="1" as="geometry"><mxPoint x="-50" y="10" as="offset"/></mxGeometry></mxCell><mxCell id="9" value="Тип" style="strokeWidth=1;shadow=0;dashed=0;align=center;html=1;shape=mxgraph.mockup.containers.rrect;rSize=0;fontSize=17;fontColor=#ffffff;strokeColor=#008cff;fillColor=#008cff;" vertex="1" parent="7"><mxGeometry width="110" height="25" relative="1" as="geometry"><mxPoint x="-50" y="40" as="offset"/></mxGeometry></mxCell><mxCell id="10" value="Категории" style="strokeColor=inherit;fillColor=inherit;gradientColor=inherit;strokeWidth=1;shadow=0;dashed=0;align=center;html=1;shape=mxgraph.mockup.containers.rrect;rSize=0;fontSize=17;fontColor=#666666;" vertex="1" parent="7"><mxGeometry width="110" height="25" relative="1" as="geometry"><mxPoint x="-50" y="70" as="offset"/></mxGeometry></mxCell><mxCell id="11" value="" style="strokeWidth=1;shadow=0;dashed=0;align=center;html=1;shape=mxgraph.mockup.containers.leftButton;rSize=5;strokeColor=#008cff;fillColor=#008cff;resizeHeight=1;movable=0;deletable=0;" vertex="1" parent="7"><mxGeometry width="7" height="610" relative="1" as="geometry"><mxPoint x="60" as="offset"/></mxGeometry></mxCell><mxCell id="26" value="Покупатели" style="strokeColor=inherit;fillColor=inherit;gradientColor=inherit;strokeWidth=1;shadow=0;dashed=0;align=center;html=1;shape=mxgraph.mockup.containers.rrect;rSize=0;fontSize=17;fontColor=#666666;" vertex="1" parent="7"><mxGeometry x="-50" y="190" width="110" height="25" as="geometry"/></mxCell><mxCell id="24" value="Цена продажи" style="strokeColor=inherit;fillColor=inherit;gradientColor=inherit;strokeWidth=1;shadow=0;dashed=0;align=center;html=1;shape=mxgraph.mockup.containers.rrect;rSize=0;fontSize=17;fontColor=#666666;" vertex="1" parent="7"><mxGeometry x="-50" y="280" width="110" height="25" as="geometry"/></mxCell><mxCell id="20" value="Заказы" style="strokeColor=inherit;fillColor=inherit;gradientColor=inherit;strokeWidth=1;shadow=0;dashed=0;align=center;html=1;shape=mxgraph.mockup.containers.rrect;rSize=0;fontSize=17;fontColor=#666666;" vertex="1" parent="7"><mxGeometry x="-50" y="130" width="110" height="25" as="geometry"/></mxCell><mxCell id="21" value="Даты" style="strokeColor=inherit;fillColor=inherit;gradientColor=inherit;strokeWidth=1;shadow=0;dashed=0;align=center;html=1;shape=mxgraph.mockup.containers.rrect;rSize=0;fontSize=17;fontColor=#666666;" vertex="1" parent="7"><mxGeometry x="-50" y="220" width="110" height="25" as="geometry"/></mxCell><mxCell id="22" value="Поставщики" style="strokeColor=inherit;fillColor=inherit;gradientColor=inherit;strokeWidth=1;shadow=0;dashed=0;align=center;html=1;shape=mxgraph.mockup.containers.rrect;rSize=0;fontSize=17;fontColor=#666666;" vertex="1" parent="7"><mxGeometry x="-50" y="160" width="110" height="25" as="geometry"/></mxCell><mxCell id="23" value="Цена закупки" style="strokeColor=inherit;fillColor=inherit;gradientColor=inherit;strokeWidth=1;shadow=0;dashed=0;align=center;html=1;shape=mxgraph.mockup.containers.rrect;rSize=0;fontSize=17;fontColor=#666666;" vertex="1" parent="7"><mxGeometry x="-50" y="250" width="110" height="25" as="geometry"/></mxCell><mxCell id="28" value="" style="strokeWidth=1;shadow=0;dashed=0;align=center;html=1;shape=mxgraph.mockup.forms.rrect;rSize=0;strokeColor=#999999;fillColor=#ffffff;" vertex="1" parent="7"><mxGeometry x="80" y="10" width="210" height="400" as="geometry"/></mxCell><mxCell id="29" value="Тип продукта" style="strokeWidth=1;shadow=0;dashed=0;align=center;html=1;shape=mxgraph.mockup.forms.rrect;rSize=0;strokeColor=#999999;fontColor=#008cff;fontSize=17;fillColor=#ffffff;resizeWidth=1;" vertex="1" parent="28"><mxGeometry width="210" height="30" relative="1" as="geometry"/></mxCell><mxCell id="30" value="Item 1" style="strokeWidth=1;shadow=0;dashed=0;align=center;html=1;shape=mxgraph.mockup.forms.anchor;fontSize=17;fontColor=#666666;align=left;spacingLeft=5;resizeWidth=1;" vertex="1" parent="28"><mxGeometry width="210" height="20" relative="1" as="geometry"><mxPoint y="30" as="offset"/></mxGeometry></mxCell><mxCell id="31" value="Item 2" style="strokeWidth=1;shadow=0;dashed=0;align=center;html=1;shape=mxgraph.mockup.forms.anchor;fontSize=17;fontColor=#666666;align=left;spacingLeft=5;resizeWidth=1;" vertex="1" parent="28"><mxGeometry width="210" height="20" relative="1" as="geometry"><mxPoint y="50" as="offset"/></mxGeometry></mxCell><mxCell id="32" value="Item 3" style="strokeWidth=1;shadow=0;dashed=0;align=center;html=1;shape=mxgraph.mockup.forms.rrect;rSize=0;fontSize=17;fontColor=#666666;align=left;spacingLeft=5;fillColor=#ddeeff;strokeColor=none;resizeWidth=1;" vertex="1" parent="28"><mxGeometry width="210" height="20" relative="1" as="geometry"><mxPoint y="70" as="offset"/></mxGeometry></mxCell><mxCell id="33" value="Item 4" style="strokeWidth=1;shadow=0;dashed=0;align=center;html=1;shape=mxgraph.mockup.forms.anchor;fontSize=17;fontColor=#666666;align=left;spacingLeft=5;resizeWidth=1;" vertex="1" parent="28"><mxGeometry width="210" height="20" relative="1" as="geometry"><mxPoint y="90" as="offset"/></mxGeometry></mxCell><mxCell id="35" value="" style="strokeWidth=1;shadow=0;dashed=0;align=center;html=1;shape=mxgraph.mockup.forms.rrect;rSize=0;fillColor=#eeeeee;strokeColor=#999999;gradientColor=#cccccc;align=left;spacingLeft=4;fontSize=17;fontColor=#666666;labelPosition=right;" vertex="1" parent="28"><mxGeometry x="195" y="27.27272727272727" width="15" height="13.636363636363635" as="geometry"/></mxCell><mxCell id="38" value="" style="strokeWidth=1;shadow=0;dashed=0;align=center;html=1;shape=mxgraph.mockup.forms.rrect;rSize=0;fillColor=#eeeeee;strokeColor=#999999;gradientColor=#cccccc;align=left;spacingLeft=4;fontSize=17;fontColor=#666666;labelPosition=right;" vertex="1" parent="28"><mxGeometry x="195" y="81.81818181818183" width="15" height="13.636363636363635" as="geometry"/></mxCell><mxCell id="37" value="" style="strokeWidth=1;shadow=0;dashed=0;align=center;html=1;shape=mxgraph.mockup.forms.rrect;rSize=0;fillColor=#eeeeee;strokeColor=#999999;gradientColor=#cccccc;align=left;spacingLeft=4;fontSize=17;fontColor=#666666;labelPosition=right;" vertex="1" parent="28"><mxGeometry x="195" y="63.63636363636363" width="15" height="13.636363636363635" as="geometry"/></mxCell><mxCell id="36" value="" style="strokeWidth=1;shadow=0;dashed=0;align=center;html=1;shape=mxgraph.mockup.forms.rrect;rSize=0;fillColor=#eeeeee;strokeColor=#999999;gradientColor=#cccccc;align=left;spacingLeft=4;fontSize=17;fontColor=#666666;labelPosition=right;" vertex="1" parent="28"><mxGeometry x="195" y="45.45454545454545" width="15" height="13.636363636363635" as="geometry"/></mxCell><mxCell id="42" value="" style="strokeWidth=1;shadow=0;dashed=0;align=center;html=1;shape=mxgraph.mockup.forms.checkbox;rSize=0;resizable=0;fillColor=#aaaaaa;strokeColor=#444444;gradientColor=#666666;align=left;spacingLeft=4;fontSize=17;fontColor=#008cff;labelPosition=right;" vertex="1" parent="28"><mxGeometry x="195" y="63.63636363636363" width="15" height="15" as="geometry"/></mxCell><mxCell id="41" value="Исключить выбранное" style="strokeWidth=1;shadow=0;dashed=0;align=center;html=1;shape=mxgraph.mockup.forms.rrect;rSize=0;fillColor=#eeeeee;strokeColor=#999999;gradientColor=#cccccc;align=left;spacingLeft=4;fontSize=17;fontColor=#666666;labelPosition=right;" vertex="1" parent="7"><mxGeometry x="80" y="510" width="15" height="15" as="geometry"/></mxCell><mxCell id="48" value="Добавить в фильтр" style="strokeWidth=1;shadow=0;dashed=0;align=center;html=1;shape=mxgraph.mockup.buttons.button;strokeColor=#666666;fontColor=#ffffff;mainText=;buttonStyle=round;fontSize=17;fontStyle=1;fillColor=#008cff;whiteSpace=wrap;" vertex="1" parent="7"><mxGeometry x="87" y="540" width="150" height="50" as="geometry"/></mxCell><mxCell id="61" value="" style="group" vertex="1" connectable="0" parent="7"><mxGeometry x="80" y="430" width="150" height="65" as="geometry"/></mxCell><mxCell id="52" value="" style="strokeWidth=1;shadow=0;dashed=0;align=center;html=1;shape=mxgraph.mockup.forms.rrect;rSize=0;strokeColor=#999999;fillColor=#ffffff;recursiveResize=0;container=0;" vertex="1" parent="61"><mxGeometry width="150" height="65" as="geometry"/></mxCell><mxCell id="55" value="Строки" style="shape=ellipse;rSize=0;fillColor=#aaaaaa;strokeColor=#444444;gradientColor=#666666;html=1;align=left;spacingLeft=4;fontSize=17;fontColor=#008cff;labelPosition=right;" vertex="1" parent="61"><mxGeometry x="8" y="10" width="15" height="15" as="geometry"/></mxCell><mxCell id="56" value="" style="shape=ellipse;fillColor=#444444;strokeColor=none;html=1;" vertex="1" parent="55"><mxGeometry x="3" y="3" width="9" height="9" as="geometry"/></mxCell><mxCell id="57" value="Столбцы" style="shape=ellipse;rSize=0;fillColor=#eeeeee;strokeColor=#999999;gradientColor=#cccccc;html=1;align=left;spacingLeft=4;fontSize=17;fontColor=#666666;labelPosition=right;" vertex="1" parent="61"><mxGeometry x="8" y="40" width="15" height="15" as="geometry"/></mxCell><mxCell id="19" value="Подкатегории" style="strokeColor=inherit;fillColor=inherit;gradientColor=inherit;strokeWidth=1;shadow=0;dashed=0;align=center;html=1;shape=mxgraph.mockup.containers.rrect;rSize=0;fontSize=17;fontColor=#666666;" vertex="1" parent="4"><mxGeometry x="800" y="210" width="110" height="25" as="geometry"/></mxCell><mxCell id="27" value="Прибыль" style="strokeColor=inherit;fillColor=inherit;gradientColor=inherit;strokeWidth=1;shadow=0;dashed=0;align=center;html=1;shape=mxgraph.mockup.containers.rrect;rSize=0;fontSize=17;fontColor=#666666;" vertex="1" parent="4"><mxGeometry x="800" y="420" width="110" height="25" as="geometry"/></mxCell><mxCell id="67" value="График" style="strokeWidth=1;shadow=0;dashed=0;align=center;html=1;shape=mxgraph.mockup.buttons.button;strokeColor=#666666;fontColor=#ffffff;mainText=;buttonStyle=round;fontSize=17;fontStyle=1;fillColor=#008cff;whiteSpace=wrap;" vertex="1" parent="4"><mxGeometry x="117" y="660" width="150" height="50" as="geometry"/></mxCell><mxCell id="68" value="Таблица" style="strokeWidth=1;shadow=0;dashed=0;align=center;html=1;shape=mxgraph.mockup.buttons.button;strokeColor=#666666;fontColor=#ffffff;mainText=;buttonStyle=round;fontSize=17;fontStyle=1;fillColor=#666666;whiteSpace=wrap;gradientColor=none;" vertex="1" parent="4"><mxGeometry x="327" y="660" width="150" height="50" as="geometry"/></mxCell><mxCell id="71" value="" style="verticalLabelPosition=bottom;shadow=0;dashed=0;align=center;html=1;verticalAlign=top;strokeWidth=1;shape=mxgraph.mockup.graphics.lineChart;strokeColor=none;strokeColor2=#666666;strokeColor3=#008cff;strokeColor4=#dddddd;fillColor=#E3E3E3;gradientColor=none;" vertex="1" parent="4"><mxGeometry x="7" y="120" width="783" height="530" as="geometry"/></mxCell></root></mxGraphModel></diagram></mxfile>